<?xml version="1.0" encoding="UTF-8"?>
<svg version="1.1" xmlns="http://www.w3.org/2000/svg" width="256" height="256">
<path d="M0 0 C76.56 0 153.12 0 232 0 C232.83433406 7.50900658 233.35067942 14.89486793 233.61254883 22.42919922 C233.68736765 24.49634322 233.7781955 26.5624173 233.86914062 28.62890625 C234.14257257 35.75934304 233.98862755 42.11218657 232 49 C232.99 49.33 233.98 49.66 235 50 C235.66199463 60.79287668 236.10412358 71.56014478 236.125 82.375 C236.13176758 83.82628296 236.13176758 83.82628296 236.13867188 85.30688477 C236.12880855 89.98497791 235.96932846 94.39953634 235 99 C235.66 99 236.32 99 237 99 C237.28885015 103.51635651 237.57350306 108.03295227 237.85449219 112.54980469 C237.9503814 114.0821015 238.04736038 115.61433055 238.14550781 117.14648438 C238.28746873 119.36571012 238.42533352 121.58516084 238.5625 123.8046875 C238.60624756 124.47490936 238.64999512 125.14513123 238.69506836 125.83566284 C239.23843881 134.79102553 239.04622706 143.24154831 237.50390625 152.09375 C237.35090561 153.00709106 237.19790497 153.92043213 237.04026794 154.8614502 C236.71874845 156.77123853 236.39335371 158.68037825 236.06420898 160.58886719 C235.55927018 163.5187408 235.06676371 166.45050575 234.57617188 169.3828125 C234.26113197 171.24491283 233.94540188 173.10689655 233.62890625 174.96875 C233.48095108 175.84575562 233.33299591 176.72276123 233.18055725 177.62634277 C232.11670833 183.76658334 232.11670833 183.76658334 231 186 C155.1 186 79.2 186 1 186 C-0.85052499 178.59790002 -2.42292572 171.22125832 -3.76928711 163.71850586 C-4.04097571 162.23666898 -4.32450598 160.75693685 -4.62182617 159.2800293 C-7.68091803 144.02270035 -6.91340262 129.01983152 -6.12781143 113.57168961 C-5.88810744 108.74861357 -5.67356337 103.92436229 -5.45385742 99.1003418 C-4.88725944 86.76974406 -4.28200479 74.44117565 -3.67181396 62.1126709 C-3.44057502 57.41872572 -3.21335952 52.72458893 -2.98607635 48.03045082 C-2.76502405 43.4766556 -2.54133145 38.92299298 -2.31684875 34.36936569 C-2.21077232 32.21096217 -2.10552167 30.05251788 -2.00114441 27.89403152 C-1.85567414 24.89356957 -1.7066159 21.89330612 -1.55664062 18.89306641 C-1.51505325 18.02035095 -1.47346588 17.1476355 -1.43061829 16.24847412 C-1.38861801 15.42265839 -1.34661774 14.59684265 -1.30334473 13.7460022 C-1.25136806 12.69056685 -1.25136806 12.69056685 -1.19834137 11.61380959 C-0.90386822 7.7331429 -0.42977998 3.86801984 0 0 Z M62 88 C61.67 91.63 61.34 95.26 61 99 C78.82 99 96.64 99 115 99 C115 95.37 115 91.74 115 88 C97.51 88 80.02 88 62 88 Z " fill="#000103" transform="translate(12,35)"/>
<path d="M0 0 C33.33 0 66.66 0 101 0 C101 7.92 101 15.84 101 24 C82.19 24 63.38 24 44 24 C44 32.25 44 40.5 44 49 C63.47 49 82.94 49 103 49 C104 57 104 57 104 74 C84.53 74 65.06 74 45 74 C45 82.58 45 91.16 45 100 C65.13 100 85.26 100 106 100 C106.103125 104.434375 106.20625 108.86875 106.3125 113.4375 C106.35802002 114.75548584 106.40354004 116.07347168 106.45043945 117.43139648 C106.62114649 133.51199945 103.49706026 147.51940231 101 164 C67.67 164 34.34 164 0 164 C0 109.88 0 55.76 0 0 Z " fill="#5593FE" transform="translate(135,46)"/>
<path d="M0 0 C33.33 0 66.66 0 101 0 C101 7.92 101 15.84 101 24 C81.53 24 62.06 24 42 24 C42.020625 30.414375 42.04125 36.82875 42.0625 43.4375 C42.09213322 62.31892262 41.6830928 81.12956146 41 100 C60.8 100 80.6 100 101 100 C101 121.12 101 142.24 101 164 C67.67 164 34.34 164 0 164 C-5.83294924 125.50253503 -5.83294924 125.50253503 -5.26074219 107.23681641 C-5.24116833 106.57970484 -5.22159447 105.92259327 -5.20142746 105.24556923 C-5.15956853 103.86510953 -5.11570133 102.48470924 -5.06980896 101.10437775 C-4.99833778 98.94989274 -4.93329421 96.79528204 -4.8692627 94.64056396 C-4.56867078 84.75669048 -4.16359979 74.8786885 -3.72589111 65.00006104 C-3.59098147 61.90774925 -3.46431526 58.81512222 -3.33771706 55.72246075 C-3.21065348 52.6390779 -3.07910669 49.55589771 -2.94630051 46.47275734 C-2.88542979 45.05212897 -2.8255914 43.63145578 -2.76704788 42.2107296 C-2.17986472 28.10696653 -1.04378984 14.09116286 0 0 Z " fill="#5593FE" transform="translate(20,46)"/>
<path d="M0 0 C33.33 0 66.66 0 101 0 C101 1.65 101 3.3 101 5 C100.505 3.02 100.505 3.02 100 1 C67.33 1 34.66 1 1 1 C1 42.25 1 83.5 1 126 C35.65 126 70.3 126 106 126 C104.84332932 138.72337751 102.87228302 151.36208963 101 164 C67.67 164 34.34 164 0 164 C0 109.88 0 55.76 0 0 Z " fill="#155BF8" transform="translate(135,46)"/>
<path d="M0 0 C0.33 0 0.66 0 1 0 C1 21.12 1 42.24 1 64 C-32.33 64 -65.66 64 -100 64 C-105 31 -105 31 -105 26 C-70.35 26 -35.7 26 0 26 C0 17.42 0 8.84 0 0 Z " fill="#135AFC" transform="translate(120,146)"/>
<path d="M0 0 C33.33 0 66.66 0 101 0 C101 7.92 101 15.84 101 24 C77.24 24 53.48 24 29 24 C29 16.41 29 8.82 29 1 C24.05 1 19.1 1 14 1 C14 8.59 14 16.18 14 24 C9.38 24 4.76 24 0 24 C-0.33 28.29 -0.66 32.58 -1 37 C3.62 37 8.24 37 13 37 C13.08458893 48.418555 12.85517965 59.78491439 12.34375 71.19140625 C12.27617146 72.75893307 12.20891736 74.3264739 12.14196777 75.89402771 C11.96762455 79.9562297 11.78897144 84.01823023 11.60931396 88.0802002 C11.42565979 92.25061631 11.24622872 96.4212141 11.06640625 100.59179688 C10.71499123 108.7280456 10.35861569 116.86406547 10 125 C14.95 125 19.9 125 25 125 C25 125.33 25 125.66 25 126 C15.1 126 5.2 126 -5 126 C-5.15482115 105.73250379 -4.60986665 85.58668741 -3.72589111 65.34338379 C-3.59154567 62.222961 -3.46461066 59.10225491 -3.33771706 55.98152161 C-3.21058769 52.87668667 -3.07904255 49.77204953 -2.94630051 46.66744995 C-2.88535324 45.23286893 -2.82551224 43.79824026 -2.76704788 42.36355591 C-2.18487021 28.20775871 -1.04767141 14.14356399 0 0 Z " fill="#5490F8" transform="translate(20,46)"/>
<path d="M0 0 C9.24 0 18.48 0 28 0 C28 7.59 28 15.18 28 23 C32.62 23 37.24 23 42 23 C42 27.29 42 31.58 42 36 C37.71 36 33.42 36 29 36 C29.03029297 37.99071533 29.06058594 39.98143066 29.09179688 42.0324707 C29.1928929 48.6899668 29.29239124 55.34748614 29.39115143 62.00501728 C29.45093992 66.03224651 29.51122805 70.05946683 29.57275391 74.08666992 C29.82662245 90.72532418 30.07153659 107.35880041 30 124 C24.72 124 19.44 124 14 124 C14 94.96 14 65.92 14 36 C9.38 36 4.76 36 0 36 C0 24.12 0 12.24 0 0 Z " fill="#74A9FF" transform="translate(136,47)"/>
<path d="M0 0 C4.95 0 9.9 0 15 0 C15 7.59 15 15.18 15 23 C19.29 23 23.58 23 28 23 C28 27.29 28 31.58 28 36 C23.05 36 18.1 36 13 36 C13.01160156 38.00449219 13.02320312 40.00898437 13.03515625 42.07421875 C13.11302685 59.78416363 12.94164286 77.48136599 12.5625 95.1875 C12.54285187 96.16762054 12.52320374 97.14774109 12.50296021 98.15756226 C12.44551054 100.97365927 12.38201666 103.78955128 12.31640625 106.60546875 C12.29968872 107.43751831 12.28297119 108.26956787 12.26574707 109.12683105 C12.13875001 114.14898754 11.70012229 119.0243978 11 124 C6.05 124 1.1 124 -4 124 C-4.14175232 110.07467162 -3.7642294 96.1971861 -3.20043945 82.28369141 C-3.06241387 78.8728716 -2.93017414 75.46186418 -2.79882812 72.05078125 C-2.32845322 60.02369703 -1.75674918 48.01254106 -1 36 C-5.62 36 -10.24 36 -15 36 C-15.125 27.5 -15.125 27.5 -14 23 C-9.38 23 -4.76 23 0 23 C0 15.41 0 7.82 0 0 Z " fill="#76AAFE" transform="translate(34,47)"/>
<path d="M0 0 C23.43 0 46.86 0 71 0 C71 7.59 71 15.18 71 23 C47.57 23 24.14 23 0 23 C0 15.41 0 7.82 0 0 Z " fill="#5694FE" transform="translate(49,47)"/>
<path d="M0 0 C33.33 0 66.66 0 101 0 C101 7.92 101 15.84 101 24 C100.67 24 100.34 24 100 24 C100 16.41 100 8.82 100 1 C71.62 1 43.24 1 14 1 C14 8.59 14 16.18 14 24 C9.38 24 4.76 24 0 24 C0 16.08 0 8.16 0 0 Z " fill="#518AED" transform="translate(20,46)"/>
<path d="M0 0 C4.62 0 9.24 0 14 0 C14 7.59 14 15.18 14 23 C9.38 23 4.76 23 0 23 C0 15.41 0 7.82 0 0 Z " fill="#5694FF" transform="translate(136,47)"/>
<path d="M0 0 C4.95 0 9.9 0 15 0 C15 6.27 15 12.54 15 19 C10.05 19 5.1 19 0 19 C0 12.73 0 6.46 0 0 Z " fill="#81B9FF" transform="translate(151,152)"/>
<path d="M0 0 C4.95 0 9.9 0 15 0 C15 6.27 15 12.54 15 19 C10.05 19 5.1 19 0 19 C0 12.73 0 6.46 0 0 Z " fill="#81B9FF" transform="translate(30,152)"/>
<path d="M0 0 C4.62 0 9.24 0 14 0 C14 4.29 14 8.58 14 13 C9.38 13 4.76 13 0 13 C0 8.71 0 4.42 0 0 Z " fill="#84B6FF" transform="translate(150,70)"/>
<path d="M0 0 C4.62 0 9.24 0 14 0 C13.67 4.29 13.34 8.58 13 13 C8.38 13 3.76 13 -1 13 C-1.125 4.5 -1.125 4.5 0 0 Z " fill="#73A8FE" transform="translate(20,70)"/>
<path d="" fill="#000000" transform="translate(0,0)"/>
</svg>
